<svg xmlns="http://www.w3.org/2000/svg" xmlns:xlink="http://www.w3.org/1999/xlink" width="500" zoomAndPan="magnify" viewBox="0 0 375 374.999991" height="500" preserveAspectRatio="xMidYMid meet" version="1.0"><defs><g/></defs><rect x="-37.5" width="450" fill="#ffffff" y="-37.499999" height="449.999989" fill-opacity="1"/><rect x="-37.5" width="450" fill="#ffffff" y="-37.499999" height="449.999989" fill-opacity="1"/><rect x="-37.5" width="450" fill="#ffffff" y="-37.499999" height="449.999989" fill-opacity="1"/><rect x="-37.5" width="450" fill="#ffffff" y="-37.499999" height="449.999989" fill-opacity="1"/><g fill="#000000" fill-opacity="1"><g transform="translate(17.835941, 222.590911)"><g><path d="M 31.609375 -70.203125 C 36.546875 -70.203125 41.390625 -69.15625 46.140625 -67.0625 L 45.5625 -64.5 L 44.703125 -64.359375 C 40.429688 -66.453125 35.972656 -67.5 31.328125 -67.5 C 27.617188 -67.5 24.390625 -66.757812 21.640625 -65.28125 C 18.890625 -63.8125 16.800781 -61.914062 15.375 -59.59375 C 13.957031 -57.269531 13.25 -54.921875 13.25 -52.546875 C 13.25 -50.078125 13.984375 -47.9375 15.453125 -46.125 C 16.921875 -44.320312 18.695312 -42.804688 20.78125 -41.578125 C 22.875 -40.347656 25.820312 -38.875 29.625 -37.15625 C 33.695312 -35.351562 36.988281 -33.691406 39.5 -32.171875 C 42.019531 -30.660156 44.160156 -28.738281 45.921875 -26.40625 C 47.679688 -24.082031 48.5625 -21.257812 48.5625 -17.9375 C 48.5625 -14.707031 47.632812 -11.671875 45.78125 -8.828125 C 43.925781 -5.984375 41.3125 -3.726562 37.9375 -2.0625 C 34.570312 -0.40625 30.800781 0.421875 26.625 0.421875 C 23.59375 0.421875 20.460938 -0.0234375 17.234375 -0.921875 C 14.003906 -1.828125 11.15625 -3.085938 8.6875 -4.703125 L 8.828125 -7.40625 L 9.546875 -7.546875 C 11.910156 -5.835938 14.632812 -4.53125 17.71875 -3.625 C 20.8125 -2.726562 23.78125 -2.28125 26.625 -2.28125 C 30.425781 -2.28125 33.773438 -3.015625 36.671875 -4.484375 C 39.566406 -5.953125 41.796875 -7.875 43.359375 -10.25 C 44.921875 -12.625 45.703125 -15.140625 45.703125 -17.796875 C 45.703125 -20.453125 44.941406 -22.753906 43.421875 -24.703125 C 41.910156 -26.648438 40.0625 -28.265625 37.875 -29.546875 C 35.6875 -30.828125 32.648438 -32.367188 28.765625 -34.171875 C 24.679688 -36.066406 21.453125 -37.726562 19.078125 -39.15625 C 16.703125 -40.582031 14.660156 -42.410156 12.953125 -44.640625 C 11.242188 -46.867188 10.390625 -49.597656 10.390625 -52.828125 C 10.390625 -55.960938 11.289062 -58.859375 13.09375 -61.515625 C 14.90625 -64.171875 17.421875 -66.28125 20.640625 -67.84375 C 23.867188 -69.414062 27.523438 -70.203125 31.609375 -70.203125 Z M 31.609375 -70.203125 "/></g></g></g><g fill="#000000" fill-opacity="1"><g transform="translate(75.363338, 222.590911)"><g><path d="M 32.1875 -26.484375 L 32.1875 0 L 29.328125 0 L 29.328125 -26.625 L 5.703125 -69.90625 L 9.25 -69.90625 L 10.53125 -66.921875 L 30.46875 -30.90625 L 31.046875 -30.90625 L 52.6875 -66.921875 L 54.109375 -69.90625 L 57.671875 -69.90625 Z M 32.1875 -26.484375 "/></g></g></g><g fill="#000000" fill-opacity="1"><g transform="translate(139.01369, 222.590911)"><g><path d="M 42.859375 -70.34375 C 46.273438 -70.34375 49.785156 -69.84375 53.390625 -68.84375 C 57.003906 -67.84375 60.519531 -66.394531 63.9375 -64.5 L 63.078125 -61.9375 L 62.359375 -61.9375 C 55.335938 -65.738281 48.835938 -67.640625 42.859375 -67.640625 C 32.703125 -67.640625 24.894531 -64.765625 19.4375 -59.015625 C 13.976562 -53.273438 11.25 -44.992188 11.25 -34.171875 C 11.25 -23.828125 13.617188 -15.898438 18.359375 -10.390625 C 23.109375 -4.890625 29.898438 -2.140625 38.734375 -2.140625 C 42.335938 -2.140625 45.65625 -2.351562 48.6875 -2.78125 C 51.726562 -3.207031 55.625 -4.035156 60.375 -5.265625 L 60.375 -26.0625 L 63.21875 -26.34375 L 63.21875 -3.28125 C 57.90625 -1.851562 53.539062 -0.878906 50.125 -0.359375 C 46.707031 0.160156 42.910156 0.421875 38.734375 0.421875 C 28.953125 0.421875 21.425781 -2.566406 16.15625 -8.546875 C 10.894531 -14.523438 8.265625 -23.113281 8.265625 -34.3125 C 8.265625 -45.894531 11.253906 -54.796875 17.234375 -61.015625 C 23.210938 -67.234375 31.753906 -70.34375 42.859375 -70.34375 Z M 42.859375 -70.34375 "/></g></g></g><g fill="#000000" fill-opacity="1"><g transform="translate(214.767599, 222.590911)"><g><path d="M 52.6875 -2.28125 L 52.109375 0 L 15.375 0 L 15.375 -69.90625 L 51.828125 -69.90625 L 52.25 -69.34375 L 51.6875 -67.0625 L 18.21875 -67.203125 L 18.21875 -37.59375 L 46 -37.59375 L 46.28125 -37.015625 L 45.84375 -34.75 L 18.21875 -34.75 L 18.21875 -2.703125 L 52.25 -2.703125 Z M 52.6875 -2.28125 "/></g></g></g><g fill="#000000" fill-opacity="1"><g transform="translate(273.434153, 222.590911)"><g><path d="M 68.203125 -19.5 L 68.0625 0 L 65.21875 0 L 18.796875 -64.21875 L 18.375 -64.21875 L 18.21875 -21.921875 L 18.21875 0 L 15.375 0 L 15.375 -20.78125 L 15.515625 -69.90625 L 18.375 -69.90625 L 64.78125 -5.703125 L 65.359375 -5.703125 L 65.5 -69.765625 L 68.34375 -70.0625 Z M 68.203125 -19.5 "/></g></g></g><g fill="#000000" fill-opacity="1"><g transform="translate(26.038197, 280.901262)"><g><path d="M 5.984375 -10.40625 L 5.984375 0 L 4.40625 0 L 4.40625 -10.40625 L 0.375 -10.40625 L 0.375 -11.703125 L 10 -11.703125 L 10 -10.40625 Z M 5.984375 -10.40625 "/></g></g></g><g fill="#000000" fill-opacity="1"><g transform="translate(36.417702, 280.901262)"><g><path d="M 2.296875 -4.171875 C 2.296875 -3.140625 2.503906 -2.34375 2.921875 -1.78125 C 3.347656 -1.226562 3.972656 -0.953125 4.796875 -0.953125 C 5.441406 -0.953125 5.957031 -1.082031 6.34375 -1.34375 C 6.738281 -1.601562 7.003906 -1.929688 7.140625 -2.328125 L 8.453125 -1.953125 C 7.921875 -0.535156 6.703125 0.171875 4.796875 0.171875 C 3.472656 0.171875 2.460938 -0.222656 1.765625 -1.015625 C 1.066406 -1.804688 0.71875 -2.984375 0.71875 -4.546875 C 0.71875 -6.035156 1.066406 -7.171875 1.765625 -7.953125 C 2.460938 -8.742188 3.453125 -9.140625 4.734375 -9.140625 C 7.378906 -9.140625 8.703125 -7.550781 8.703125 -4.375 L 8.703125 -4.171875 Z M 7.15625 -5.328125 C 7.070312 -6.265625 6.828125 -6.953125 6.421875 -7.390625 C 6.023438 -7.828125 5.457031 -8.046875 4.71875 -8.046875 C 3.988281 -8.046875 3.410156 -7.800781 2.984375 -7.3125 C 2.566406 -6.832031 2.34375 -6.171875 2.3125 -5.328125 Z M 7.15625 -5.328125 "/></g></g></g><g fill="#000000" fill-opacity="1"><g transform="translate(45.867946, 280.901262)"><g><path d="M 2.28125 -4.53125 C 2.28125 -3.332031 2.46875 -2.445312 2.84375 -1.875 C 3.21875 -1.300781 3.785156 -1.015625 4.546875 -1.015625 C 5.078125 -1.015625 5.519531 -1.15625 5.875 -1.4375 C 6.238281 -1.726562 6.460938 -2.171875 6.546875 -2.765625 L 8.046875 -2.671875 C 7.929688 -1.804688 7.5625 -1.113281 6.9375 -0.59375 C 6.320312 -0.0820312 5.539062 0.171875 4.59375 0.171875 C 3.332031 0.171875 2.367188 -0.222656 1.703125 -1.015625 C 1.046875 -1.816406 0.71875 -2.976562 0.71875 -4.5 C 0.71875 -6.007812 1.050781 -7.160156 1.71875 -7.953125 C 2.382812 -8.742188 3.335938 -9.140625 4.578125 -9.140625 C 5.492188 -9.140625 6.253906 -8.898438 6.859375 -8.421875 C 7.460938 -7.953125 7.84375 -7.300781 8 -6.46875 L 6.46875 -6.34375 C 6.382812 -6.84375 6.1875 -7.238281 5.875 -7.53125 C 5.5625 -7.832031 5.113281 -7.984375 4.53125 -7.984375 C 3.738281 -7.984375 3.164062 -7.71875 2.8125 -7.1875 C 2.457031 -6.664062 2.28125 -5.78125 2.28125 -4.53125 Z M 2.28125 -4.53125 "/></g></g></g><g fill="#000000" fill-opacity="1"><g transform="translate(54.364039, 280.901262)"><g><path d="M 2.625 -7.453125 C 2.945312 -8.035156 3.332031 -8.460938 3.78125 -8.734375 C 4.238281 -9.003906 4.8125 -9.140625 5.5 -9.140625 C 6.476562 -9.140625 7.195312 -8.894531 7.65625 -8.40625 C 8.113281 -7.925781 8.34375 -7.117188 8.34375 -5.984375 L 8.34375 0 L 6.84375 0 L 6.84375 -5.6875 C 6.84375 -6.320312 6.785156 -6.789062 6.671875 -7.09375 C 6.554688 -7.40625 6.363281 -7.632812 6.09375 -7.78125 C 5.832031 -7.925781 5.46875 -8 5 -8 C 4.289062 -8 3.722656 -7.753906 3.296875 -7.265625 C 2.878906 -6.773438 2.671875 -6.117188 2.671875 -5.296875 L 2.671875 0 L 1.171875 0 L 1.171875 -12.3125 L 2.671875 -12.3125 L 2.671875 -9.109375 C 2.671875 -8.773438 2.660156 -8.425781 2.640625 -8.0625 C 2.617188 -7.707031 2.609375 -7.503906 2.609375 -7.453125 Z M 2.625 -7.453125 "/></g></g></g><g fill="#000000" fill-opacity="1"><g transform="translate(63.814283, 280.901262)"><g><path d="M 3.203125 -1.8125 L 3.203125 -0.421875 C 3.203125 0.160156 3.144531 0.648438 3.03125 1.046875 C 2.925781 1.441406 2.765625 1.816406 2.546875 2.171875 L 1.53125 2.171875 C 2.050781 1.421875 2.3125 0.695312 2.3125 0 L 1.578125 0 L 1.578125 -1.8125 Z M 3.203125 -1.8125 "/></g></g></g><g fill="#000000" fill-opacity="1"><g transform="translate(68.535257, 280.901262)"><g/></g></g><g fill="#000000" fill-opacity="1"><g transform="translate(73.256231, 280.901262)"><g><path d="M 7.890625 -2.484375 C 7.890625 -1.640625 7.566406 -0.984375 6.921875 -0.515625 C 6.285156 -0.0546875 5.390625 0.171875 4.234375 0.171875 C 3.117188 0.171875 2.257812 -0.0078125 1.65625 -0.375 C 1.050781 -0.75 0.65625 -1.328125 0.46875 -2.109375 L 1.796875 -2.359375 C 1.921875 -1.878906 2.179688 -1.523438 2.578125 -1.296875 C 2.972656 -1.078125 3.523438 -0.96875 4.234375 -0.96875 C 4.992188 -0.96875 5.550781 -1.082031 5.90625 -1.3125 C 6.257812 -1.550781 6.4375 -1.898438 6.4375 -2.359375 C 6.4375 -2.710938 6.3125 -3 6.0625 -3.21875 C 5.820312 -3.445312 5.429688 -3.632812 4.890625 -3.78125 L 3.8125 -4.0625 C 2.957031 -4.28125 2.347656 -4.492188 1.984375 -4.703125 C 1.617188 -4.921875 1.332031 -5.179688 1.125 -5.484375 C 0.925781 -5.785156 0.828125 -6.160156 0.828125 -6.609375 C 0.828125 -7.429688 1.117188 -8.054688 1.703125 -8.484375 C 2.285156 -8.910156 3.140625 -9.125 4.265625 -9.125 C 5.253906 -9.125 6.039062 -8.945312 6.625 -8.59375 C 7.207031 -8.25 7.578125 -7.691406 7.734375 -6.921875 L 6.390625 -6.75 C 6.304688 -7.15625 6.082031 -7.460938 5.71875 -7.671875 C 5.351562 -7.890625 4.867188 -8 4.265625 -8 C 3.585938 -8 3.085938 -7.894531 2.765625 -7.6875 C 2.441406 -7.476562 2.28125 -7.164062 2.28125 -6.75 C 2.28125 -6.5 2.347656 -6.289062 2.484375 -6.125 C 2.617188 -5.957031 2.816406 -5.816406 3.078125 -5.703125 C 3.335938 -5.585938 3.882812 -5.425781 4.71875 -5.21875 C 5.507812 -5.019531 6.078125 -4.835938 6.421875 -4.671875 C 6.773438 -4.503906 7.050781 -4.316406 7.25 -4.109375 C 7.445312 -3.898438 7.601562 -3.660156 7.71875 -3.390625 C 7.832031 -3.128906 7.890625 -2.828125 7.890625 -2.484375 Z M 7.890625 -2.484375 "/></g></g></g><g fill="#000000" fill-opacity="1"><g transform="translate(81.752324, 280.901262)"><g><path d="M 1.140625 -10.890625 L 1.140625 -12.3125 L 2.625 -12.3125 L 2.625 -10.890625 Z M 1.140625 0 L 1.140625 -8.984375 L 2.625 -8.984375 L 2.625 0 Z M 1.140625 0 "/></g></g></g><g fill="#000000" fill-opacity="1"><g transform="translate(85.527444, 280.901262)"><g><path d="M 6.375 0 L 6.375 -5.6875 C 6.375 -6.5625 6.253906 -7.164062 6.015625 -7.5 C 5.773438 -7.832031 5.347656 -8 4.734375 -8 C 4.097656 -8 3.59375 -7.753906 3.21875 -7.265625 C 2.851562 -6.773438 2.671875 -6.085938 2.671875 -5.203125 L 2.671875 0 L 1.171875 0 L 1.171875 -7.0625 C 1.171875 -8.113281 1.15625 -8.753906 1.125 -8.984375 L 2.546875 -8.984375 C 2.546875 -8.953125 2.546875 -8.875 2.546875 -8.75 C 2.554688 -8.632812 2.566406 -8.5 2.578125 -8.34375 C 2.585938 -8.1875 2.597656 -7.890625 2.609375 -7.453125 L 2.625 -7.453125 C 2.945312 -8.085938 3.316406 -8.523438 3.734375 -8.765625 C 4.148438 -9.015625 4.65625 -9.140625 5.25 -9.140625 C 5.9375 -9.140625 6.476562 -9.003906 6.875 -8.734375 C 7.269531 -8.460938 7.539062 -8.035156 7.6875 -7.453125 L 7.71875 -7.453125 C 8.03125 -8.046875 8.40625 -8.472656 8.84375 -8.734375 C 9.28125 -9.003906 9.8125 -9.140625 10.4375 -9.140625 C 11.34375 -9.140625 12.003906 -8.894531 12.421875 -8.40625 C 12.835938 -7.914062 13.046875 -7.109375 13.046875 -5.984375 L 13.046875 0 L 11.5625 0 L 11.5625 -5.6875 C 11.5625 -6.5625 11.441406 -7.164062 11.203125 -7.5 C 10.960938 -7.832031 10.535156 -8 9.921875 -8 C 9.265625 -8 8.753906 -7.753906 8.390625 -7.265625 C 8.035156 -6.785156 7.859375 -6.097656 7.859375 -5.203125 L 7.859375 0 Z M 6.375 0 "/></g></g></g><g fill="#000000" fill-opacity="1"><g transform="translate(99.682067, 280.901262)"><g><path d="M 8.734375 -4.53125 C 8.734375 -1.394531 7.632812 0.171875 5.4375 0.171875 C 4.050781 0.171875 3.117188 -0.347656 2.640625 -1.390625 L 2.609375 -1.390625 C 2.628906 -1.347656 2.640625 -0.878906 2.640625 0.015625 L 2.640625 3.53125 L 1.140625 3.53125 L 1.140625 -7.140625 C 1.140625 -8.066406 1.125 -8.679688 1.09375 -8.984375 L 2.546875 -8.984375 C 2.546875 -8.960938 2.550781 -8.882812 2.5625 -8.75 C 2.570312 -8.613281 2.582031 -8.398438 2.59375 -8.109375 C 2.613281 -7.828125 2.625 -7.632812 2.625 -7.53125 L 2.65625 -7.53125 C 2.925781 -8.09375 3.273438 -8.5 3.703125 -8.75 C 4.140625 -9.007812 4.71875 -9.140625 5.4375 -9.140625 C 6.539062 -9.140625 7.363281 -8.769531 7.90625 -8.03125 C 8.457031 -7.289062 8.734375 -6.125 8.734375 -4.53125 Z M 7.171875 -4.5 C 7.171875 -5.75 7 -6.640625 6.65625 -7.171875 C 6.320312 -7.710938 5.789062 -7.984375 5.0625 -7.984375 C 4.46875 -7.984375 4 -7.859375 3.65625 -7.609375 C 3.320312 -7.359375 3.066406 -6.96875 2.890625 -6.4375 C 2.722656 -5.914062 2.640625 -5.234375 2.640625 -4.390625 C 2.640625 -3.203125 2.828125 -2.328125 3.203125 -1.765625 C 3.578125 -1.210938 4.1875 -0.9375 5.03125 -0.9375 C 5.78125 -0.9375 6.320312 -1.207031 6.65625 -1.75 C 7 -2.300781 7.171875 -3.21875 7.171875 -4.5 Z M 7.171875 -4.5 "/></g></g></g><g fill="#000000" fill-opacity="1"><g transform="translate(109.132312, 280.901262)"><g><path d="M 1.140625 0 L 1.140625 -12.3125 L 2.640625 -12.3125 L 2.640625 0 Z M 1.140625 0 "/></g></g></g><g fill="#000000" fill-opacity="1"><g transform="translate(112.907431, 280.901262)"><g><path d="M 1.140625 -10.890625 L 1.140625 -12.3125 L 2.625 -12.3125 L 2.625 -10.890625 Z M 1.140625 0 L 1.140625 -8.984375 L 2.625 -8.984375 L 2.625 0 Z M 1.140625 0 "/></g></g></g><g fill="#000000" fill-opacity="1"><g transform="translate(116.682551, 280.901262)"><g><path d="M 3 -7.890625 L 3 0 L 1.5 0 L 1.5 -7.890625 L 0.234375 -7.890625 L 0.234375 -8.984375 L 1.5 -8.984375 L 1.5 -10 C 1.5 -10.8125 1.675781 -11.394531 2.03125 -11.75 C 2.394531 -12.113281 2.945312 -12.296875 3.6875 -12.296875 C 4.101562 -12.296875 4.457031 -12.265625 4.75 -12.203125 L 4.75 -11.0625 C 4.5 -11.101562 4.273438 -11.125 4.078125 -11.125 C 3.703125 -11.125 3.425781 -11.023438 3.25 -10.828125 C 3.082031 -10.640625 3 -10.289062 3 -9.78125 L 3 -8.984375 L 4.75 -8.984375 L 4.75 -7.890625 Z M 3 -7.890625 "/></g></g></g><g fill="#000000" fill-opacity="1"><g transform="translate(121.403524, 280.901262)"><g><path d="M 1.140625 -10.890625 L 1.140625 -12.3125 L 2.625 -12.3125 L 2.625 -10.890625 Z M 1.140625 0 L 1.140625 -8.984375 L 2.625 -8.984375 L 2.625 0 Z M 1.140625 0 "/></g></g></g><g fill="#000000" fill-opacity="1"><g transform="translate(125.178644, 280.901262)"><g><path d="M 2.296875 -4.171875 C 2.296875 -3.140625 2.503906 -2.34375 2.921875 -1.78125 C 3.347656 -1.226562 3.972656 -0.953125 4.796875 -0.953125 C 5.441406 -0.953125 5.957031 -1.082031 6.34375 -1.34375 C 6.738281 -1.601562 7.003906 -1.929688 7.140625 -2.328125 L 8.453125 -1.953125 C 7.921875 -0.535156 6.703125 0.171875 4.796875 0.171875 C 3.472656 0.171875 2.460938 -0.222656 1.765625 -1.015625 C 1.066406 -1.804688 0.71875 -2.984375 0.71875 -4.546875 C 0.71875 -6.035156 1.066406 -7.171875 1.765625 -7.953125 C 2.460938 -8.742188 3.453125 -9.140625 4.734375 -9.140625 C 7.378906 -9.140625 8.703125 -7.550781 8.703125 -4.375 L 8.703125 -4.171875 Z M 7.15625 -5.328125 C 7.070312 -6.265625 6.828125 -6.953125 6.421875 -7.390625 C 6.023438 -7.828125 5.457031 -8.046875 4.71875 -8.046875 C 3.988281 -8.046875 3.410156 -7.800781 2.984375 -7.3125 C 2.566406 -6.832031 2.34375 -6.171875 2.3125 -5.328125 Z M 7.15625 -5.328125 "/></g></g></g><g fill="#000000" fill-opacity="1"><g transform="translate(134.628888, 280.901262)"><g><path d="M 6.8125 -1.4375 C 6.539062 -0.863281 6.175781 -0.453125 5.71875 -0.203125 C 5.257812 0.046875 4.691406 0.171875 4.015625 0.171875 C 2.878906 0.171875 2.046875 -0.207031 1.515625 -0.96875 C 0.984375 -1.738281 0.71875 -2.898438 0.71875 -4.453125 C 0.71875 -7.578125 1.816406 -9.140625 4.015625 -9.140625 C 4.691406 -9.140625 5.257812 -9.015625 5.71875 -8.765625 C 6.175781 -8.523438 6.539062 -8.132812 6.8125 -7.59375 L 6.828125 -7.59375 L 6.8125 -8.59375 L 6.8125 -12.3125 L 8.3125 -12.3125 L 8.3125 -1.84375 C 8.3125 -0.914062 8.328125 -0.300781 8.359375 0 L 6.9375 0 C 6.914062 -0.09375 6.894531 -0.296875 6.875 -0.609375 C 6.851562 -0.929688 6.84375 -1.207031 6.84375 -1.4375 Z M 2.28125 -4.5 C 2.28125 -3.238281 2.445312 -2.335938 2.78125 -1.796875 C 3.113281 -1.253906 3.65625 -0.984375 4.40625 -0.984375 C 5.25 -0.984375 5.859375 -1.273438 6.234375 -1.859375 C 6.617188 -2.453125 6.8125 -3.363281 6.8125 -4.59375 C 6.8125 -5.789062 6.617188 -6.664062 6.234375 -7.21875 C 5.859375 -7.769531 5.253906 -8.046875 4.421875 -8.046875 C 3.660156 -8.046875 3.113281 -7.765625 2.78125 -7.203125 C 2.445312 -6.648438 2.28125 -5.75 2.28125 -4.5 Z M 2.28125 -4.5 "/></g></g></g></svg>